<mxfile host="Electron" modified="2025-03-14T03:29:35.283Z" agent="Mozilla/5.0 (Windows NT 10.0; Win64; x64) AppleWebKit/537.36 (KHTML, like Gecko) draw.io/24.2.5 Chrome/120.0.6099.109 Electron/28.1.0 Safari/537.36" etag="nj-Muf8GgldDQwgJOJs-" version="24.2.5" type="device">
  <diagram name="ページ1" id="N9gGtj4fEyhL4dejYwza">
    <mxGraphModel dx="2901" dy="1197" grid="1" gridSize="10" guides="1" tooltips="1" connect="1" arrows="1" fold="1" page="1" pageScale="1" pageWidth="827" pageHeight="1169" math="0" shadow="0">
      <root>
        <mxCell id="0" />
        <mxCell id="1" parent="0" />
        <mxCell id="49ammNH0PoP4tiqC4sNR-15" value="" style="whiteSpace=wrap;html=1;fillColor=#fff2cc;strokeColor=#d6b656;" vertex="1" parent="1">
          <mxGeometry x="164" y="390" width="706" height="500" as="geometry" />
        </mxCell>
        <mxCell id="49ammNH0PoP4tiqC4sNR-1" value="" style="outlineConnect=0;dashed=0;verticalLabelPosition=bottom;verticalAlign=top;align=center;html=1;shape=mxgraph.aws3.rds;fillColor=#2E73B8;gradientColor=none;" vertex="1" parent="1">
          <mxGeometry x="470" y="250" width="72" height="81" as="geometry" />
        </mxCell>
        <mxCell id="49ammNH0PoP4tiqC4sNR-2" value="" style="outlineConnect=0;dashed=0;verticalLabelPosition=bottom;verticalAlign=top;align=center;html=1;shape=mxgraph.aws3.glue;fillColor=#F58534;gradientColor=none;" vertex="1" parent="1">
          <mxGeometry x="470" y="620" width="82.5" height="99" as="geometry" />
        </mxCell>
        <mxCell id="49ammNH0PoP4tiqC4sNR-3" value="" style="sketch=0;points=[[0,0,0],[0.25,0,0],[0.5,0,0],[0.75,0,0],[1,0,0],[0,1,0],[0.25,1,0],[0.5,1,0],[0.75,1,0],[1,1,0],[0,0.25,0],[0,0.5,0],[0,0.75,0],[1,0.25,0],[1,0.5,0],[1,0.75,0]];outlineConnect=0;fontColor=#232F3E;fillColor=#DD344C;strokeColor=#ffffff;dashed=0;verticalLabelPosition=bottom;verticalAlign=top;align=center;html=1;fontSize=12;fontStyle=0;aspect=fixed;shape=mxgraph.aws4.resourceIcon;resIcon=mxgraph.aws4.secrets_manager;" vertex="1" parent="1">
          <mxGeometry x="230" y="460" width="78" height="78" as="geometry" />
        </mxCell>
        <mxCell id="49ammNH0PoP4tiqC4sNR-4" value="" style="sketch=0;points=[[0,0,0],[0.25,0,0],[0.5,0,0],[0.75,0,0],[1,0,0],[0,1,0],[0.25,1,0],[0.5,1,0],[0.75,1,0],[1,1,0],[0,0.25,0],[0,0.5,0],[0,0.75,0],[1,0.25,0],[1,0.5,0],[1,0.75,0]];outlineConnect=0;fontColor=#232F3E;fillColor=#7AA116;strokeColor=#ffffff;dashed=0;verticalLabelPosition=bottom;verticalAlign=top;align=center;html=1;fontSize=12;fontStyle=0;aspect=fixed;shape=mxgraph.aws4.resourceIcon;resIcon=mxgraph.aws4.s3;" vertex="1" parent="1">
          <mxGeometry x="980" y="630.5" width="78" height="78" as="geometry" />
        </mxCell>
        <mxCell id="49ammNH0PoP4tiqC4sNR-5" value="" style="sketch=0;points=[[0,0,0],[0.25,0,0],[0.5,0,0],[0.75,0,0],[1,0,0],[0,1,0],[0.25,1,0],[0.5,1,0],[0.75,1,0],[1,1,0],[0,0.25,0],[0,0.5,0],[0,0.75,0],[1,0.25,0],[1,0.5,0],[1,0.75,0]];outlineConnect=0;fontColor=#232F3E;fillColor=#7AA116;strokeColor=#ffffff;dashed=0;verticalLabelPosition=bottom;verticalAlign=top;align=center;html=1;fontSize=12;fontStyle=0;aspect=fixed;shape=mxgraph.aws4.resourceIcon;resIcon=mxgraph.aws4.s3;" vertex="1" parent="1">
          <mxGeometry x="-20" y="630.5" width="78" height="78" as="geometry" />
        </mxCell>
        <mxCell id="49ammNH0PoP4tiqC4sNR-10" value="" style="edgeStyle=none;orthogonalLoop=1;jettySize=auto;html=1;rounded=0;exitX=0.5;exitY=1;exitDx=0;exitDy=0;exitPerimeter=0;entryX=0;entryY=0.5;entryDx=0;entryDy=0;entryPerimeter=0;" edge="1" parent="1" source="49ammNH0PoP4tiqC4sNR-3" target="49ammNH0PoP4tiqC4sNR-2">
          <mxGeometry width="100" relative="1" as="geometry">
            <mxPoint x="390" y="374.5" as="sourcePoint" />
            <mxPoint x="249" y="440" as="targetPoint" />
            <Array as="points" />
          </mxGeometry>
        </mxCell>
        <mxCell id="49ammNH0PoP4tiqC4sNR-11" value="" style="edgeStyle=none;orthogonalLoop=1;jettySize=auto;html=1;rounded=0;" edge="1" parent="1" source="49ammNH0PoP4tiqC4sNR-2">
          <mxGeometry width="100" relative="1" as="geometry">
            <mxPoint x="760" y="660" as="sourcePoint" />
            <mxPoint x="980" y="670" as="targetPoint" />
            <Array as="points" />
          </mxGeometry>
        </mxCell>
        <mxCell id="49ammNH0PoP4tiqC4sNR-12" value="" style="edgeStyle=none;orthogonalLoop=1;jettySize=auto;html=1;rounded=0;" edge="1" parent="1">
          <mxGeometry width="100" relative="1" as="geometry">
            <mxPoint x="58" y="669" as="sourcePoint" />
            <mxPoint x="480" y="670" as="targetPoint" />
            <Array as="points" />
          </mxGeometry>
        </mxCell>
        <mxCell id="49ammNH0PoP4tiqC4sNR-14" value="" style="edgeStyle=none;orthogonalLoop=1;jettySize=auto;html=1;endArrow=classic;startArrow=classic;endSize=8;startSize=8;rounded=0;exitX=0.5;exitY=1;exitDx=0;exitDy=0;exitPerimeter=0;" edge="1" parent="1" source="49ammNH0PoP4tiqC4sNR-1" target="49ammNH0PoP4tiqC4sNR-2">
          <mxGeometry width="100" relative="1" as="geometry">
            <mxPoint x="390" y="460" as="sourcePoint" />
            <mxPoint x="490" y="460" as="targetPoint" />
            <Array as="points" />
          </mxGeometry>
        </mxCell>
        <mxCell id="49ammNH0PoP4tiqC4sNR-17" value="" style="endArrow=none;dashed=1;html=1;dashPattern=1 3;strokeWidth=2;rounded=0;exitX=0.5;exitY=0;exitDx=0;exitDy=0;exitPerimeter=0;" edge="1" parent="1" source="49ammNH0PoP4tiqC4sNR-3" target="49ammNH0PoP4tiqC4sNR-1">
          <mxGeometry width="50" height="50" relative="1" as="geometry">
            <mxPoint x="364" y="410" as="sourcePoint" />
            <mxPoint x="414" y="360" as="targetPoint" />
          </mxGeometry>
        </mxCell>
        <mxCell id="49ammNH0PoP4tiqC4sNR-20" value="" style="html=1;verticalLabelPosition=bottom;align=center;labelBackgroundColor=#ffffff;verticalAlign=top;strokeWidth=2;strokeColor=#0080F0;shadow=0;dashed=0;shape=mxgraph.ios7.icons.mail;" vertex="1" parent="1">
          <mxGeometry x="465.75" y="930" width="93.5" height="60" as="geometry" />
        </mxCell>
        <mxCell id="49ammNH0PoP4tiqC4sNR-26" value="test.json" style="text;html=1;align=center;verticalAlign=middle;resizable=0;points=[];autosize=1;strokeColor=none;fillColor=none;" vertex="1" parent="1">
          <mxGeometry x="-20" y="719" width="70" height="30" as="geometry" />
        </mxCell>
        <mxCell id="49ammNH0PoP4tiqC4sNR-29" value="test.csv" style="text;html=1;align=center;verticalAlign=middle;resizable=0;points=[];autosize=1;strokeColor=none;fillColor=none;" vertex="1" parent="1">
          <mxGeometry x="989" y="720" width="60" height="30" as="geometry" />
        </mxCell>
        <mxCell id="49ammNH0PoP4tiqC4sNR-30" value="megaRDS&lt;div&gt;&lt;br&gt;&lt;/div&gt;" style="text;html=1;align=center;verticalAlign=middle;resizable=0;points=[];autosize=1;strokeColor=none;fillColor=none;" vertex="1" parent="1">
          <mxGeometry x="460" y="210" width="80" height="40" as="geometry" />
        </mxCell>
        <mxCell id="49ammNH0PoP4tiqC4sNR-31" value="slack" style="text;html=1;align=center;verticalAlign=middle;resizable=0;points=[];autosize=1;strokeColor=none;fillColor=none;" vertex="1" parent="1">
          <mxGeometry x="486.25" y="1000" width="50" height="30" as="geometry" />
        </mxCell>
        <mxCell id="49ammNH0PoP4tiqC4sNR-33" value="rds-secret-onewonder" style="text;html=1;align=center;verticalAlign=middle;resizable=0;points=[];autosize=1;strokeColor=none;fillColor=none;" vertex="1" parent="1">
          <mxGeometry x="308" y="484" width="140" height="30" as="geometry" />
        </mxCell>
        <mxCell id="49ammNH0PoP4tiqC4sNR-40" value="job-wonder" style="text;html=1;align=center;verticalAlign=middle;resizable=0;points=[];autosize=1;strokeColor=none;fillColor=none;" vertex="1" parent="1">
          <mxGeometry x="472.5" y="708.5" width="80" height="30" as="geometry" />
        </mxCell>
        <mxCell id="49ammNH0PoP4tiqC4sNR-43" value="slack api" style="text;html=1;align=center;verticalAlign=middle;resizable=0;points=[];autosize=1;strokeColor=none;fillColor=none;" vertex="1" parent="1">
          <mxGeometry x="510" y="790" width="70" height="30" as="geometry" />
        </mxCell>
        <mxCell id="49ammNH0PoP4tiqC4sNR-44" value="" style="edgeStyle=none;orthogonalLoop=1;jettySize=auto;html=1;rounded=0;entryX=0.498;entryY=0.011;entryDx=0;entryDy=0;entryPerimeter=0;" edge="1" parent="1" source="49ammNH0PoP4tiqC4sNR-40" target="49ammNH0PoP4tiqC4sNR-20">
          <mxGeometry width="100" relative="1" as="geometry">
            <mxPoint x="510" y="740" as="sourcePoint" />
            <mxPoint x="500" y="929" as="targetPoint" />
            <Array as="points" />
          </mxGeometry>
        </mxCell>
        <mxCell id="49ammNH0PoP4tiqC4sNR-47" value="①" style="text;html=1;align=center;verticalAlign=middle;resizable=0;points=[];autosize=1;fontColor=#FF3333;" vertex="1" parent="1">
          <mxGeometry x="374" y="560" width="40" height="30" as="geometry" />
        </mxCell>
        <mxCell id="49ammNH0PoP4tiqC4sNR-48" value="②" style="text;html=1;align=center;verticalAlign=middle;resizable=0;points=[];autosize=1;fontColor=#FF3333;" vertex="1" parent="1">
          <mxGeometry x="512.5" y="484" width="40" height="30" as="geometry" />
        </mxCell>
        <mxCell id="49ammNH0PoP4tiqC4sNR-49" value="③" style="text;html=1;align=center;verticalAlign=middle;resizable=0;points=[];autosize=1;strokeColor=none;fillColor=none;fontColor=#FF3333;" vertex="1" parent="1">
          <mxGeometry x="220" y="690" width="40" height="30" as="geometry" />
        </mxCell>
        <mxCell id="49ammNH0PoP4tiqC4sNR-50" value="④" style="text;html=1;align=center;verticalAlign=middle;resizable=0;points=[];autosize=1;strokeColor=none;fillColor=none;fontColor=#FF3333;" vertex="1" parent="1">
          <mxGeometry x="470" y="810" width="40" height="30" as="geometry" />
        </mxCell>
        <mxCell id="49ammNH0PoP4tiqC4sNR-51" value="⑤" style="text;html=1;align=center;verticalAlign=middle;resizable=0;points=[];autosize=1;strokeColor=none;fillColor=none;fontColor=#FF3333;" vertex="1" parent="1">
          <mxGeometry x="700" y="678.5" width="40" height="30" as="geometry" />
        </mxCell>
      </root>
    </mxGraphModel>
  </diagram>
</mxfile>
